<svg xmlns="http://www.w3.org/2000/svg" viewBox="0 0 11 6" width="11" height="6" shape-rendering="crispEdges">
  <rect x="2" y="0" width="1" height="1" fill="#533846"/>
  <rect x="3" y="0" width="1" height="1" fill="#ffee00"/>
  <rect x="4" y="0" width="1" height="1" fill="#533846"/>
  <rect x="5" y="0" width="1" height="1" fill="#ffee00"/>
  <rect x="6" y="0" width="1" height="1" fill="#533846"/>
  <rect x="7" y="0" width="1" height="1" fill="#ffee00"/>
  <rect x="8" y="0" width="1" height="1" fill="#533846"/>
  <rect x="1" y="1" width="1" height="1" fill="#533846"/>
  <rect x="2" y="1" width="1" height="1" fill="#ffd700"/>
  <rect x="3" y="1" width="1" height="1" fill="#ffd700"/>
  <rect x="4" y="1" width="1" height="1" fill="#ffd700"/>
  <rect x="5" y="1" width="1" height="1" fill="#ffd700"/>
  <rect x="6" y="1" width="1" height="1" fill="#ffd700"/>
  <rect x="7" y="1" width="1" height="1" fill="#ffd700"/>
  <rect x="8" y="1" width="1" height="1" fill="#ffd700"/>
  <rect x="9" y="1" width="1" height="1" fill="#533846"/>
  <rect x="0" y="2" width="1" height="1" fill="#533846"/>
  <rect x="1" y="2" width="1" height="1" fill="#ffd700"/>
  <rect x="2" y="2" width="1" height="1" fill="#ffee00"/>
  <rect x="3" y="2" width="1" height="1" fill="#ffd700"/>
  <rect x="4" y="2" width="1" height="1" fill="#ff9500"/>
  <rect x="5" y="2" width="1" height="1" fill="#ffd700"/>
  <rect x="6" y="2" width="1" height="1" fill="#ff9500"/>
  <rect x="7" y="2" width="1" height="1" fill="#ffd700"/>
  <rect x="8" y="2" width="1" height="1" fill="#ffee00"/>
  <rect x="9" y="2" width="1" height="1" fill="#ffd700"/>
  <rect x="10" y="2" width="1" height="1" fill="#533846"/>
  <rect x="0" y="3" width="1" height="1" fill="#533846"/>
  <rect x="1" y="3" width="1" height="1" fill="#d9b800"/>
  <rect x="2" y="3" width="1" height="1" fill="#ffd700"/>
  <rect x="3" y="3" width="1" height="1" fill="#ffd700"/>
  <rect x="4" y="3" width="1" height="1" fill="#ffd700"/>
  <rect x="5" y="3" width="1" height="1" fill="#ffd700"/>
  <rect x="6" y="3" width="1" height="1" fill="#ffd700"/>
  <rect x="7" y="3" width="1" height="1" fill="#ffd700"/>
  <rect x="8" y="3" width="1" height="1" fill="#ffd700"/>
  <rect x="9" y="3" width="1" height="1" fill="#d9b800"/>
  <rect x="10" y="3" width="1" height="1" fill="#533846"/>
  <rect x="1" y="4" width="1" height="1" fill="#533846"/>
  <rect x="2" y="4" width="1" height="1" fill="#d9b800"/>
  <rect x="3" y="4" width="1" height="1" fill="#ffd700"/>
  <rect x="4" y="4" width="1" height="1" fill="#ffd700"/>
  <rect x="5" y="4" width="1" height="1" fill="#ffd700"/>
  <rect x="6" y="4" width="1" height="1" fill="#ffd700"/>
  <rect x="7" y="4" width="1" height="1" fill="#ffd700"/>
  <rect x="8" y="4" width="1" height="1" fill="#d9b800"/>
  <rect x="9" y="4" width="1" height="1" fill="#533846"/>
  <rect x="2" y="5" width="1" height="1" fill="#533846"/>
  <rect x="3" y="5" width="1" height="1" fill="#533846"/>
  <rect x="4" y="5" width="1" height="1" fill="#533846"/>
  <rect x="5" y="5" width="1" height="1" fill="#533846"/>
  <rect x="6" y="5" width="1" height="1" fill="#533846"/>
  <rect x="7" y="5" width="1" height="1" fill="#533846"/>
  <rect x="8" y="5" width="1" height="1" fill="#533846"/>
</svg>
