<svg xmlns="http://www.w3.org/2000/svg" viewBox="0 0 34 24" width="34" height="24" shape-rendering="crispEdges">
  <rect x="12" y="0" width="2" height="2" fill="#4c293a"/>
  <rect x="14" y="0" width="2" height="2" fill="#4c293a"/>
  <rect x="16" y="0" width="2" height="2" fill="#4c293a"/>
  <rect x="18" y="0" width="2" height="2" fill="#4c293a"/>
  <rect x="20" y="0" width="2" height="2" fill="#4c293a"/>
  <rect x="22" y="0" width="2" height="2" fill="#4c293a"/>
  <rect x="8" y="2" width="2" height="2" fill="#4c293a"/>
  <rect x="10" y="2" width="2" height="2" fill="#4c293a"/>
  <rect x="12" y="2" width="2" height="2" fill="#e3eabd"/>
  <rect x="14" y="2" width="2" height="2" fill="#e3eabd"/>
  <rect x="16" y="2" width="2" height="2" fill="#e3eabd"/>
  <rect x="18" y="2" width="2" height="2" fill="#4c293a"/>
  <rect x="20" y="2" width="2" height="2" fill="#ebfede"/>
  <rect x="22" y="2" width="2" height="2" fill="#ecffdf"/>
  <rect x="24" y="2" width="2" height="2" fill="#4c293a"/>
  <rect x="6" y="4" width="2" height="2" fill="#4c293a"/>
  <rect x="8" y="4" width="2" height="2" fill="#e3eabd"/>
  <rect x="10" y="4" width="2" height="2" fill="#e3eabd"/>
  <rect x="12" y="4" width="2" height="2" fill="#d4c027"/>
  <rect x="14" y="4" width="2" height="2" fill="#d4c027"/>
  <rect x="16" y="4" width="2" height="2" fill="#4c293a"/>
  <rect x="18" y="4" width="2" height="2" fill="#ebfede"/>
  <rect x="20" y="4" width="2" height="2" fill="#ebfede"/>
  <rect x="22" y="4" width="2" height="2" fill="#ebfede"/>
  <rect x="24" y="4" width="2" height="2" fill="#ebfede"/>
  <rect x="26" y="4" width="2" height="2" fill="#4c293a"/>
  <rect x="2" y="6" width="2" height="2" fill="#4c293a"/>
  <rect x="4" y="6" width="2" height="2" fill="#4c293a"/>
  <rect x="6" y="6" width="2" height="2" fill="#4c293a"/>
  <rect x="8" y="6" width="2" height="2" fill="#4c293a"/>
  <rect x="10" y="6" width="2" height="2" fill="#d4c027"/>
  <rect x="12" y="6" width="2" height="2" fill="#d4c027"/>
  <rect x="14" y="6" width="2" height="2" fill="#d4c027"/>
  <rect x="16" y="6" width="2" height="2" fill="#4c293a"/>
  <rect x="18" y="6" width="2" height="2" fill="#cac3c3"/>
  <rect x="20" y="6" width="2" height="2" fill="#ebfede"/>
  <rect x="22" y="6" width="2" height="2" fill="#ebfede"/>
  <rect x="24" y="6" width="2" height="2" fill="#4c293a"/>
  <rect x="26" y="6" width="2" height="2" fill="#ebfede"/>
  <rect x="28" y="6" width="2" height="2" fill="#4c293a"/>
  <rect x="0" y="8" width="2" height="2" fill="#4c293a"/>
  <rect x="2" y="8" width="2" height="2" fill="#e3eabd"/>
  <rect x="4" y="8" width="2" height="2" fill="#e3eabd"/>
  <rect x="6" y="8" width="2" height="2" fill="#e3eabd"/>
  <rect x="8" y="8" width="2" height="2" fill="#e3eabd"/>
  <rect x="10" y="8" width="2" height="2" fill="#4c293a"/>
  <rect x="12" y="8" width="2" height="2" fill="#d4c027"/>
  <rect x="14" y="8" width="2" height="2" fill="#d4c027"/>
  <rect x="16" y="8" width="2" height="2" fill="#4c293a"/>
  <rect x="18" y="8" width="2" height="2" fill="#cbc2c3"/>
  <rect x="20" y="8" width="2" height="2" fill="#ebfede"/>
  <rect x="22" y="8" width="2" height="2" fill="#ebfede"/>
  <rect x="24" y="8" width="2" height="2" fill="#4c293a"/>
  <rect x="26" y="8" width="2" height="2" fill="#ebfede"/>
  <rect x="28" y="8" width="2" height="2" fill="#4c293a"/>
  <rect x="0" y="10" width="2" height="2" fill="#4c293a"/>
  <rect x="2" y="10" width="2" height="2" fill="#e3eabd"/>
  <rect x="4" y="10" width="2" height="2" fill="#e3eabd"/>
  <rect x="6" y="10" width="2" height="2" fill="#e3eabd"/>
  <rect x="8" y="10" width="2" height="2" fill="#e3eabd"/>
  <rect x="10" y="10" width="2" height="2" fill="#e3eabd"/>
  <rect x="12" y="10" width="2" height="2" fill="#4c293a"/>
  <rect x="14" y="10" width="2" height="2" fill="#d4c027"/>
  <rect x="16" y="10" width="2" height="2" fill="#d4c027"/>
  <rect x="18" y="10" width="2" height="2" fill="#4c293a"/>
  <rect x="20" y="10" width="2" height="2" fill="#cbc2c3"/>
  <rect x="22" y="10" width="2" height="2" fill="#ebfede"/>
  <rect x="24" y="10" width="2" height="2" fill="#ebfede"/>
  <rect x="26" y="10" width="2" height="2" fill="#ebfede"/>
  <rect x="28" y="10" width="2" height="2" fill="#4c293a"/>
  <rect x="0" y="12" width="2" height="2" fill="#4c293a"/>
  <rect x="2" y="12" width="2" height="2" fill="#d4c027"/>
  <rect x="4" y="12" width="2" height="2" fill="#e3eabd"/>
  <rect x="6" y="12" width="2" height="2" fill="#e3eabd"/>
  <rect x="8" y="12" width="2" height="2" fill="#e3eabd"/>
  <rect x="10" y="12" width="2" height="2" fill="#d4c027"/>
  <rect x="12" y="12" width="2" height="2" fill="#4c293a"/>
  <rect x="14" y="12" width="2" height="2" fill="#d4c027"/>
  <rect x="16" y="12" width="2" height="2" fill="#d4c027"/>
  <rect x="18" y="12" width="2" height="2" fill="#d3be26"/>
  <rect x="20" y="12" width="2" height="2" fill="#4c293a"/>
  <rect x="22" y="12" width="2" height="2" fill="#4c293a"/>
  <rect x="24" y="12" width="2" height="2" fill="#4c293a"/>
  <rect x="26" y="12" width="2" height="2" fill="#4c293a"/>
  <rect x="28" y="12" width="2" height="2" fill="#4c293a"/>
  <rect x="30" y="12" width="2" height="2" fill="#4c293a"/>
  <rect x="2" y="14" width="2" height="2" fill="#4c293a"/>
  <rect x="4" y="14" width="2" height="2" fill="#d4c027"/>
  <rect x="6" y="14" width="2" height="2" fill="#d4c027"/>
  <rect x="8" y="14" width="2" height="2" fill="#d4c027"/>
  <rect x="10" y="14" width="2" height="2" fill="#4c293a"/>
  <rect x="12" y="14" width="2" height="2" fill="#d4c027"/>
  <rect x="14" y="14" width="2" height="2" fill="#d4c027"/>
  <rect x="16" y="14" width="2" height="2" fill="#d4c027"/>
  <rect x="18" y="14" width="2" height="2" fill="#4c293a"/>
  <rect x="20" y="14" width="2" height="2" fill="#ed513f"/>
  <rect x="22" y="14" width="2" height="2" fill="#ed513f"/>
  <rect x="24" y="14" width="2" height="2" fill="#ed513f"/>
  <rect x="26" y="14" width="2" height="2" fill="#ed513f"/>
  <rect x="28" y="14" width="2" height="2" fill="#ed513f"/>
  <rect x="30" y="14" width="2" height="2" fill="#ed513f"/>
  <rect x="32" y="14" width="2" height="2" fill="#4c293a"/>
  <rect x="4" y="16" width="2" height="2" fill="#4c293a"/>
  <rect x="6" y="16" width="2" height="2" fill="#4c293a"/>
  <rect x="8" y="16" width="2" height="2" fill="#4c293a"/>
  <rect x="10" y="16" width="2" height="2" fill="#e68116"/>
  <rect x="12" y="16" width="2" height="2" fill="#e68116"/>
  <rect x="14" y="16" width="2" height="2" fill="#e68116"/>
  <rect x="16" y="16" width="2" height="2" fill="#4c293a"/>
  <rect x="18" y="16" width="2" height="2" fill="#ed513f"/>
  <rect x="20" y="16" width="2" height="2" fill="#4c293a"/>
  <rect x="22" y="16" width="2" height="2" fill="#4c293a"/>
  <rect x="24" y="16" width="2" height="2" fill="#4c293a"/>
  <rect x="26" y="16" width="2" height="2" fill="#4c293a"/>
  <rect x="28" y="16" width="2" height="2" fill="#4c293a"/>
  <rect x="30" y="16" width="2" height="2" fill="#4c293a"/>
  <rect x="4" y="18" width="2" height="2" fill="#4c293a"/>
  <rect x="6" y="18" width="2" height="2" fill="#e68116"/>
  <rect x="8" y="18" width="2" height="2" fill="#e68116"/>
  <rect x="10" y="18" width="2" height="2" fill="#e68116"/>
  <rect x="12" y="18" width="2" height="2" fill="#e68116"/>
  <rect x="14" y="18" width="2" height="2" fill="#e68116"/>
  <rect x="16" y="18" width="2" height="2" fill="#e68116"/>
  <rect x="18" y="18" width="2" height="2" fill="#4c293a"/>
  <rect x="20" y="18" width="2" height="2" fill="#ed513f"/>
  <rect x="22" y="18" width="2" height="2" fill="#ed513f"/>
  <rect x="24" y="18" width="2" height="2" fill="#ed513f"/>
  <rect x="26" y="18" width="2" height="2" fill="#ed513f"/>
  <rect x="28" y="18" width="2" height="2" fill="#ed513f"/>
  <rect x="30" y="18" width="2" height="2" fill="#4c293a"/>
  <rect x="6" y="20" width="2" height="2" fill="#4c293a"/>
  <rect x="8" y="20" width="2" height="2" fill="#4c293a"/>
  <rect x="10" y="20" width="2" height="2" fill="#e68116"/>
  <rect x="12" y="20" width="2" height="2" fill="#e68116"/>
  <rect x="14" y="20" width="2" height="2" fill="#e68116"/>
  <rect x="16" y="20" width="2" height="2" fill="#e68116"/>
  <rect x="18" y="20" width="2" height="2" fill="#e68116"/>
  <rect x="20" y="20" width="2" height="2" fill="#4c293a"/>
  <rect x="22" y="20" width="2" height="2" fill="#4c293a"/>
  <rect x="24" y="20" width="2" height="2" fill="#4c293a"/>
  <rect x="26" y="20" width="2" height="2" fill="#4c293a"/>
  <rect x="28" y="20" width="2" height="2" fill="#4c293a"/>
  <rect x="10" y="22" width="2" height="2" fill="#4c293a"/>
  <rect x="12" y="22" width="2" height="2" fill="#4c293a"/>
  <rect x="14" y="22" width="2" height="2" fill="#4c293a"/>
  <rect x="16" y="22" width="2" height="2" fill="#4c293a"/>
  <rect x="18" y="22" width="2" height="2" fill="#4c293a"/>
</svg>